<svg xmlns="http://www.w3.org/2000/svg" width="187" height="40" viewBox="0 0 187 40" fill="none">
  <path fill-rule="evenodd" clip-rule="evenodd" d="M178.492 8.64062L50.6758 8.21289C49.6328 8.20898 48.5938 8.35352 47.5938 8.64062L53.0352 0L27.4316 3.64648L26.6582 6.71094L25.8906 3.64648L0 0L8.30469 12.6484L10.0703 12.8965L14.3828 20.1211L18.3926 20.4707L26.6016 40L34.9414 20.4707L40.3887 19.998C40.2754 26.0586 44.1895 31.4727 50.623 31.4219L178.492 31.8496C182.65 31.8086 186.188 28.3711 186.178 24.1797V16.373C186.191 12.1699 182.662 8.71289 178.492 8.64062ZM26.6055 23.1914L22.5801 7.17383L7.64062 4.48047L10.6309 9.12695L19.377 10.3457L20.3047 13.3711L14.4805 12.7441L16.7266 16.498L21.3887 16.9043L26.6055 32.7578L31.8184 16.9043L36.4863 16.498L38.7266 12.7441L32.9062 13.3711L33.8301 10.3457L42.5762 9.12695L45.5723 4.48047L30.627 7.17383L26.6055 23.1914ZM59.4766 24.2949C58.0586 26.252 56.1484 27.6934 52.8203 27.6934C48.5254 27.6934 45.0684 24.4023 45.0684 19.9082V19.8652C45.0684 15.4785 48.4395 12.0371 52.9922 12.0371C56.0625 12.0371 58.0371 13.3281 59.3691 15.1777L56.2344 17.6074C55.375 16.5312 54.3867 15.8438 52.9492 15.8438C50.8438 15.8438 49.3633 17.6289 49.3633 19.8223V19.8652C49.3633 20.9629 49.7129 21.9434 50.3145 22.6621C50.5957 22.9961 50.9297 23.2734 51.3086 23.4805C51.5684 23.6211 51.8477 23.7285 52.1445 23.7969C52.2715 23.8262 52.4004 23.8477 52.5332 23.8633C52.668 23.8789 52.8066 23.8867 52.9492 23.8867C53.666 23.8867 54.248 23.7344 54.7559 23.4629C55.3574 23.1406 55.8516 22.6543 56.3418 22.0586L59.4766 24.2949ZM75.6797 19.8652C75.6797 24.1875 72.2012 27.6934 67.5625 27.6934C62.9238 27.6934 59.4883 24.2305 59.4883 19.9082V19.8652C59.4883 15.543 62.9668 12.0371 67.6055 12.0371C72.2441 12.0371 75.6797 15.5 75.6797 19.8223V19.8652ZM63.7617 19.8652C63.7617 22.0371 65.3301 23.9297 67.6055 23.9297C68.873 23.9297 69.9062 23.3652 70.5762 22.4941L70.707 22.3125C70.7773 22.209 70.8438 22.1016 70.9043 21.9922C70.9863 21.8457 71.0586 21.6934 71.1211 21.5352C71.2109 21.3086 71.2832 21.0723 71.334 20.8281C71.3965 20.5312 71.4277 20.2227 71.4277 19.9082V19.8652C71.4277 17.6934 69.8594 15.8008 67.5625 15.8008C65.2871 15.8008 63.7617 17.6504 63.7617 19.8223V19.8652ZM76.582 27.3926H82.293C87.7031 27.3926 90.8613 24.166 90.8613 19.8223V19.7793C90.8613 15.4355 87.7461 12.3379 82.3789 12.3379H76.582V27.3926ZM80.7461 16.0371H82.4434C84.9336 16.0371 86.5879 17.4355 86.5879 19.8438V19.8867C86.5879 21.0918 86.1816 22.0391 85.4668 22.6855L85.3047 22.8242L85.1777 22.9199C85.0742 22.9941 84.9668 23.0625 84.8535 23.127C84.5762 23.2832 84.2715 23.4082 83.9395 23.502C83.7852 23.5449 83.625 23.5801 83.4609 23.6094C83.3613 23.627 83.2598 23.6406 83.1562 23.6523C82.9277 23.6797 82.6895 23.6934 82.4434 23.6934H80.7461V16.0371ZM103.646 27.3926H91.4512V12.3379H103.541V15.8867H95.5742V18.166H102.789V21.457H95.5742V23.8438H103.646V27.3926ZM115.52 26.1133C116.408 25.2852 116.91 24.1445 116.91 22.7461V22.7031C116.91 19.8867 114.762 18.7676 111.305 18.0156C109.223 17.543 108.707 17.2422 108.707 16.5527V16.5098C108.707 15.9727 109.201 15.543 110.211 15.543L110.477 15.5488L110.668 15.5605L110.861 15.582C111.066 15.6055 111.273 15.6406 111.482 15.6875L111.781 15.7617C112.662 15.998 113.564 16.4258 114.418 17.0273L116.502 14.0801C114.869 12.7676 112.873 12.0801 110.318 12.0801C106.711 12.0801 104.498 14.1016 104.498 16.8965V16.9395C104.498 18.5898 105.199 19.6191 106.34 20.3281C107.338 20.9512 108.674 21.3301 110.168 21.6719C112.207 22.1445 112.701 22.4883 112.701 23.1133V23.1562C112.701 23.8008 112.1 24.1875 110.982 24.1875C110.01 24.1875 109.062 23.9922 108.158 23.6133C107.768 23.4492 107.387 23.252 107.014 23.0215C106.705 22.8301 106.404 22.6172 106.109 22.3809L103.791 25.1562C105.637 26.8105 108.17 27.6504 110.834 27.6504C112.824 27.6504 114.451 27.1055 115.52 26.1133ZM122.223 27.3926H118.035V12.3379H122.223V27.3926ZM131.373 27.6934C134.1 27.6934 136.311 26.6816 137.9 25.3711V18.5957H130.986V21.6504H133.949V23.4785C133.326 23.8867 132.553 24.1016 131.545 24.1016C130.557 24.1016 129.688 23.8027 129.008 23.2793C128.047 22.541 127.465 21.3535 127.465 19.9297V19.8867C127.465 17.5859 129.139 15.7578 131.309 15.7578C132.789 15.7578 133.863 16.2734 134.938 17.1777L137.385 14.2305C135.797 12.8535 133.928 12.0371 131.287 12.0371C126.627 12.0371 123.191 15.4785 123.191 19.8652V19.9082C123.191 24.4668 126.691 27.6934 131.373 27.6934ZM142.924 27.3926H138.801V12.3379H142.688L148.871 20.2949V12.3379H152.994V27.3926H149.344L142.924 19.1348V27.3926ZM153.191 27.3926H157.572L158.645 24.7031H164.441L165.537 27.3926H170.004L163.605 12.2305H159.59L153.191 27.3926ZM159.869 21.457L161.564 17.1777L163.24 21.457H159.869ZM181.779 27.3926H170.336V12.3379H174.502V23.7363H181.779V27.3926Z" fill="#000"/>
  </svg>
